<?xml version="1.0" encoding="utf-8"?>
<!-- Generator: Adobe Illustrator 20.0.0, SVG Export Plug-In . SVG Version: 6.00 Build 0)  -->
<svg version="1.1" xmlns="http://www.w3.org/2000/svg" xmlns:xlink="http://www.w3.org/1999/xlink" x="0px" y="0px"
	 viewBox="0 0 75.5 35.8" style="enable-background:new 0 0 75.5 35.8;" xml:space="preserve">
<style type="text/css">
	.st0{fill:#293D53;}
	.st1{fill:url(#SVGID_1_);}
	.st2{fill:#FFFFFF;enable-background:new    ;}
	.st3{fill:#FFFFFF;}
</style>
<g id="Layer_3">
	<rect x="-105.6" y="14.4" class="st0" width="103.2" height="103.2"/>
	
		<image style="overflow:visible;" width="464" height="724" xlink:href="../../Screen Shot 2017-11-14 at 1.10.10 PM.png"  transform="matrix(8.770718e-02 0 0 8.770718e-02 92.75 -30.75)">
	</image>
	
		<image style="overflow:visible;" width="394" height="756" xlink:href="../../Screen Shot 2017-11-14 at 1.10.16 PM.png"  transform="matrix(6.051587e-02 0 0 6.051587e-02 7.5 -60.75)">
	</image>
	
		<image style="overflow:visible;" width="470" height="902" xlink:href="../../Screen Shot 2017-11-14 at 1.10.20 PM.png"  transform="matrix(3.686253e-02 0 0 3.686253e-02 77.75 47.25)">
	</image>
	
		<image style="overflow:visible;" width="568" height="866" xlink:href="../../Screen Shot 2017-11-14 at 1.10.26 PM.png"  transform="matrix(4.878753e-02 0 0 4.878753e-02 118 47.75)">
	</image>
</g>
<g id="Layer_4">
	<linearGradient id="SVGID_1_" gradientUnits="userSpaceOnUse" x1="39.2563" y1="7.7879" x2="34.0063" y2="29.2879">
		<stop  offset="0" style="stop-color:#A1D2C2"/>
		<stop  offset="1" style="stop-color:#A0ECC2"/>
	</linearGradient>
	<path class="st1" d="M18.9,5.9c3.7-0.1,7.4,0.6,11,2.3c3.1,1,5.7,0,7.8-3.1c2.9,2.8,5.8,4.6,8.7,3.5L54,5.2
		c3.9,1.8,6.1,4.6,6.6,8.3l-2.7,9.2l-5.6,3.4l-3.8,3.7l-3.8,2.1l-7.1,1l-7-0.5l-7.7-5.1l-3-2.9l-2.7-1.7l-1.7-6.8V11l2.7-5L18.9,5.9
		z"/>
</g>
<g id="Layer_2">
	<path class="st2" d="M36.9,19.6h1.7c0,0-0.2,2.5,1.9,2.5s3.4-1.7,5.4-1.7c2.4,0,3.9,1.7,3.9,4.8c0,4.6-6.3,5.3-6.3,5.3
		s4.5-1.3,4.5-4.9c0-3-1.7-3-2.1-3c-1.8,0-2.6,1.4-4.9,1.4c-1.9,0-3-1-3.3-1.8l0,0c-0.3,0.8-1.3,1.8-3.3,1.8c-2.4,0-3.1-1.4-4.9-1.4
		c-0.4,0-2.1,0-2.1,3c0,3.7,4.5,4.9,4.5,4.9s-6.3-0.7-6.3-5.3c0-3.1,1.6-4.8,3.9-4.8c2.1,0,3.3,1.7,5.4,1.7S36.9,19.6,36.9,19.6h1.7
		"/>
	<path class="st2" d="M37.8,34.4C51,34.4,55,26.8,55,26.8s14.9-3.3,14.9-10.4c0-4-8.4-4.2-8.4-4.2c0,8.6-7.1,9.7-10.1,11.3
		C50,24.3,49.8,25,49.8,25s0,3.1-3.5,4.6c-3.5,1.5-8.6,1.4-8.6,1.4s-5.2,0.1-8.7-1.4c-3.5-1.5-3.5-4.6-3.5-4.6s-0.2-0.6-1.6-1.4
		c-3-1.6-10.1-2.7-10.1-11.3c0,0-8.4,0.2-8.4,4.2c0,7.1,14.9,10.4,14.9,10.4S24.5,34.4,37.8,34.4z"/>
	<path class="st2" d="M4.7,14.2c0.1,0,0.2,0.1,0.1,0.2c-0.5,0.4-1.1,1.1-1.1,2.5c0,3.1,3,4.9,4.6,5.6c0.1,0.1,0.1,0.2-0.1,0.2
		c-2-0.4-6.8-1.6-6.8-5C1.3,15.2,3.6,14.5,4.7,14.2z"/>
	<path class="st2" d="M39.5,1.8h-3.8c0,0,0.7,4.7-3.8,4.7c-4.7,0-6.3-3.2-10.7-3.2c-4.8,0-7.7,3.4-7.7,9.4c0,7.1,6.1,9.2,6.1,9.2
		s-2.4-4-2.4-8.9c0-4.2,2-5.5,4-5.5c3.4,0,5.4,2.8,10.1,2.8c3.4,0,5.7-2.3,6.2-3.6c0-0.1,0.1-0.1,0.2,0c0.4,1.3,2.8,3.6,6.2,3.6
		c4.7,0,6.7-2.8,10.1-2.8c2,0,4,1.4,4,5.5c0,5-2.4,8.9-2.4,8.9s6.1-2.1,6.1-9.2c0-6.1-2.9-9.4-7.7-9.4c-4.4,0-6,3.2-10.7,3.2
		C38.8,6.6,39.5,1.8,39.5,1.8h-3.8"/>
	<path class="st3" d="M48.9,18.7c-0.2,0-0.3-0.2-0.3-0.4c0.1-1.3,0.5-6,2.6-6c2.2,0,2.3,4.4,2.3,5.3c0,0.1-0.1,0.2-0.2,0.3
		C52.8,18.2,51.2,18.9,48.9,18.7z"/>
	<path class="st3" d="M43.6,27.8C43.5,27.8,43.5,27.7,43.6,27.8c0.1-0.7,1-3,2.2-2.3C46.9,26.1,44.2,27.5,43.6,27.8z"/>
	<path class="st2" d="M70.8,14.2c-0.1,0-0.2,0.1-0.1,0.2c0.5,0.4,1.1,1.1,1.1,2.5c0,3.1-3,4.9-4.6,5.6c-0.1,0.1-0.1,0.2,0.1,0.2
		c2-0.4,6.8-1.6,6.8-5C74.2,15.2,71.9,14.5,70.8,14.2z"/>
	<path class="st3" d="M31.9,27.8C32,27.8,32,27.7,31.9,27.8c-0.1-0.7-1-3-2.2-2.3C28.5,26.1,31.3,27.5,31.9,27.8z"/>
	<path class="st3" d="M26.6,18.7c0.2,0,0.3-0.2,0.3-0.4c-0.1-1.3-0.5-6-2.6-6c-2.2,0-2.3,4.4-2.3,5.3c0,0.1,0.1,0.2,0.2,0.3
		C22.7,18.2,24.3,18.9,26.6,18.7z"/>
</g>
</svg>
